<svg width="480" height="362" viewBox="0 0 480 362" fill="none" xmlns="http://www.w3.org/2000/svg">
<path d="M412.41 268.35V310.574H67.5903V50.6843H412.41V268.35Z" fill="white"/>
<path d="M67.5903 310.18V310.967H412.41V310.18H67.5903ZM67.5903 50.2905V51.0782H412.41V50.2905H67.5903Z" fill="#F2F2F2"/>
<path d="M367.749 282.238C367.847 282.206 367.935 282.167 368.034 282.135C368.429 281.994 368.846 281.868 369.274 281.757H369.285C369.283 281.718 369.287 281.678 369.296 281.639C368.78 281.836 368.264 282.041 367.749 282.238ZM362.757 285.83C362.779 285.806 362.79 285.783 362.811 285.759C362.921 285.609 363.053 285.452 363.184 285.302C364.229 284.137 365.513 283.21 366.948 282.584C367.051 282.531 367.157 282.483 367.266 282.443C367.395 282.381 367.527 282.326 367.661 282.277C367.694 282.261 367.716 282.254 367.749 282.238C364.534 283.475 361.286 284.68 357.995 285.83H362.757ZM0 49.8966L2.4473 90.5921L480 51.4721V49.8966H0ZM480 268.35V311.361H0V309.786L28.4572 267.838L214.112 309.786C252.575 309.877 290.884 304.938 328.064 295.094C328.81 294.905 329.545 294.7 330.28 294.495C333.506 293.613 336.677 292.699 339.848 291.738H339.881C346.025 289.903 352.063 287.933 357.995 285.83C361.253 284.688 364.476 283.503 367.661 282.277C367.689 282.261 367.718 282.248 367.749 282.238C368.264 282.041 368.78 281.836 369.296 281.639L371.238 280.883H371.271C378.205 278.142 384.941 275.227 391.546 272.147C392.029 271.926 392.501 271.706 392.973 271.477C396.802 269.673 400.572 267.811 404.284 265.892C408.936 263.497 413.49 261.018 417.944 258.455C427.073 253.209 435.78 247.626 444.068 241.708C452.599 235.641 460.789 229.108 468.6 222.14C471.76 219.32 474.829 216.444 477.806 213.514C478.541 212.789 479.276 212.064 480 211.332V268.35V268.35Z" fill="#F2F2F2"/>
<path d="M134.262 265.695H67.5903V269.295H134.262C134.74 269.295 135.198 269.105 135.536 268.768C135.873 268.43 136.063 267.972 136.063 267.495C136.063 267.018 135.873 266.56 135.536 266.222C135.198 265.885 134.74 265.695 134.262 265.695V265.695Z" fill="#F2F2F2"/>
<path d="M134.262 253.091H67.5903V256.691H134.262C134.74 256.691 135.198 256.501 135.536 256.164C135.873 255.826 136.063 255.368 136.063 254.891C136.063 254.414 135.873 253.956 135.536 253.618C135.198 253.28 134.74 253.091 134.262 253.091V253.091Z" fill="#F2F2F2"/>
<path d="M134.798 240.566C134.713 240.541 134.626 240.523 134.538 240.51C134.447 240.494 134.355 240.486 134.262 240.487H67.5903V244.087H134.262C134.686 244.084 135.096 243.934 135.421 243.661C135.667 243.453 135.853 243.182 135.959 242.878C136.065 242.573 136.088 242.246 136.024 241.93C135.96 241.614 135.813 241.32 135.598 241.08C135.382 240.84 135.106 240.663 134.798 240.566H134.798Z" fill="#F2F2F2"/>
<path d="M158.632 235.658L152.761 209.615L150.845 201.13C150.686 200.43 150.256 199.822 149.648 199.44C149.041 199.057 148.306 198.931 147.606 199.09L144.713 199.744L121.517 204.975C121.171 205.053 120.843 205.198 120.553 205.403C120.263 205.607 120.016 205.867 119.827 206.167C119.637 206.467 119.509 206.801 119.448 207.151C119.388 207.5 119.397 207.858 119.476 208.204C118.23 219.792 120.69 230.482 126.025 240.487C126.42 241.235 126.837 241.984 127.271 242.732C127.386 243.249 127.652 243.721 128.035 244.087C128.358 244.395 128.752 244.619 129.183 244.739C129.613 244.858 130.066 244.87 130.502 244.772L133.545 244.087L135.421 243.661L156.591 238.888C157.29 238.73 157.898 238.301 158.281 237.695C158.664 237.089 158.79 236.357 158.632 235.658V235.658Z" fill="#E6E6E6"/>
<path d="M156.205 234.208L150.609 209.433L149.269 203.486C149.122 202.831 148.72 202.262 148.152 201.903C147.585 201.544 146.898 201.425 146.243 201.571L144.461 201.973L123.819 206.629C123.164 206.776 122.594 207.178 122.235 207.745C121.876 208.312 121.757 208.999 121.904 209.654C122.085 218.674 123.031 226.859 126.917 231.853C127.359 233.796 128.308 235.586 129.667 237.043C131.027 238.501 132.748 239.572 134.656 240.148C134.704 240.164 134.743 240.179 134.79 240.195C134.822 240.203 134.861 240.219 134.893 240.227C136.689 240.732 138.583 240.781 140.402 240.369L154.29 237.233C154.945 237.086 155.515 236.684 155.874 236.117C156.233 235.55 156.352 234.863 156.205 234.208V234.208Z" fill="white"/>
<path d="M135.639 214.89C136.096 214.363 136.711 213.998 137.393 213.849C138.074 213.701 138.785 213.777 139.42 214.066C140.054 214.403 140.562 214.936 140.867 215.586C141.173 216.237 141.258 216.968 141.112 217.671C140.866 219.296 140.016 220.776 139.939 222.44C139.87 223.169 139.997 223.903 140.308 224.566C140.619 225.229 141.101 225.797 141.706 226.21C142.632 226.772 143.585 225.381 142.655 224.816C141.124 223.886 141.638 221.844 142.082 220.45C142.637 218.71 143.214 216.937 142.529 215.144C142.225 214.394 141.738 213.731 141.112 213.217C140.486 212.704 139.741 212.355 138.945 212.203C138.15 212.051 137.329 212.101 136.557 212.349C135.786 212.596 135.089 213.033 134.53 213.619C133.8 214.406 134.9 215.687 135.639 214.89V214.89Z" fill="#007AFF"/>
<path d="M143.07 231.07C144.002 231.07 144.757 230.315 144.757 229.383C144.757 228.452 144.002 227.697 143.07 227.697C142.138 227.697 141.383 228.452 141.383 229.383C141.383 230.315 142.138 231.07 143.07 231.07Z" fill="#007AFF"/>
<path d="M344.226 165.3C342.52 164.189 340.573 163.501 338.548 163.292C336.522 163.084 334.476 163.361 332.58 164.101C330.683 164.842 328.99 166.023 327.642 167.548C326.293 169.073 325.328 170.897 324.827 172.87L301.332 234.054L260.948 211.139C260.77 208.505 259.763 205.995 258.07 203.969C256.377 201.943 254.086 200.504 251.524 199.86C248.963 199.216 246.263 199.399 243.812 200.383C241.361 201.367 239.285 203.102 237.882 205.338C236.478 207.574 235.819 210.198 235.999 212.831C236.18 215.465 237.19 217.974 238.885 219.998C240.58 222.023 242.873 223.459 245.436 224.1C247.998 224.741 250.697 224.555 253.147 223.568C261.652 232.64 298.522 269.836 313.787 255.303C326.617 243.087 345.133 195.743 349.59 179.394C350.304 176.78 350.169 174.006 349.205 171.474C348.241 168.941 346.498 166.779 344.226 165.3V165.3Z" fill="#EFB4BD"/>
<path d="M300.11 257.866L307.523 291.359L361.738 296.261L366.721 267.097L300.11 257.866Z" fill="#EFB4BD"/>
<path d="M376.007 310.181H299.042L303.038 298.183L304.346 280.38L305.095 280.396L364.287 281.38L365.359 281.396L367.18 296.679C370.651 300.811 373.615 305.344 376.007 310.181V310.181Z" fill="#111827"/>
<path d="M333.947 149.068L360.932 147.678L373.466 167.473C373.466 167.473 385.56 169.952 383.925 197.727C382.29 225.502 366.721 251.336 366.721 251.336L367.878 247.372L365.869 253.109L366.126 256.331L368.867 259.742L369.149 263.27L366.721 268.852L370.023 274.197L300.603 267.475L298.064 258.233L301.767 253.27L299.699 246.796L302.809 240.569L304.43 239.219C304.43 239.219 286.69 212.581 307.055 192.519L315.228 178.631L324.374 167.479L333.947 149.068Z" fill="#374151"/>
<path d="M245.393 188.003C238.093 185.396 228.639 186.413 223.516 192.767C218.927 198.458 218.377 207.52 224.215 212.598C231.323 218.781 241.166 216.507 248.927 213.019C256.028 209.827 263.844 204.681 263.735 195.947C263.718 193.703 263.166 191.494 262.125 189.505C261.085 187.516 259.584 185.803 257.749 184.509C255.887 183.251 253.755 182.448 251.525 182.166C249.295 181.884 247.03 182.13 244.912 182.885C243.038 183.569 243.848 186.589 245.743 185.897C247.27 185.317 248.906 185.084 250.534 185.216C252.162 185.348 253.74 185.84 255.153 186.658C256.566 187.476 257.779 188.599 258.703 189.945C259.627 191.29 260.24 192.825 260.496 194.437C261.592 201.688 255.394 206.384 249.633 209.245C243.313 212.384 235.27 215.387 228.504 211.781C222.717 208.696 221.659 201.661 224.867 196.258C228.845 189.56 237.8 188.601 244.562 191.015C246.46 191.693 247.277 188.675 245.393 188.003V188.003Z" fill="#374151"/>
<path d="M105.674 127.366C100.431 125.494 93.6408 126.224 89.961 130.788C86.6652 134.876 86.2699 141.384 90.4634 145.032C95.5682 149.472 102.638 147.839 108.212 145.334C113.313 143.041 118.927 139.345 118.848 133.072C118.836 131.46 118.44 129.874 117.692 128.445C116.944 127.017 115.867 125.786 114.549 124.857C113.211 123.953 111.68 123.377 110.078 123.174C108.477 122.972 106.85 123.148 105.329 123.69C103.983 124.182 104.564 126.351 105.926 125.854C107.022 125.437 108.198 125.27 109.367 125.365C110.536 125.459 111.669 125.813 112.684 126.401C113.699 126.988 114.57 127.794 115.234 128.761C115.898 129.727 116.338 130.83 116.522 131.987C117.309 137.195 112.857 140.568 108.719 142.623C104.18 144.878 98.4032 147.035 93.5439 144.445C89.3872 142.229 88.6271 137.176 90.9315 133.296C93.7886 128.484 100.221 127.796 105.077 129.53C106.44 130.017 107.027 127.849 105.674 127.366V127.366Z" fill="#F2F2F2"/>
<path d="M169.388 142.226C176.942 140.173 181.937 134.36 180.545 129.244C179.153 124.127 171.9 121.645 164.346 123.698C156.791 125.752 151.796 131.564 153.188 136.681C154.581 141.797 161.833 144.28 169.388 142.226Z" fill="#F2F2F2"/>
<path d="M134.263 124.388L134.291 142.029C134.302 142.335 134.431 142.625 134.652 142.838C134.872 143.051 135.167 143.17 135.473 143.17C135.78 143.17 136.075 143.051 136.295 142.838C136.516 142.625 136.645 142.335 136.656 142.029L136.628 124.388C136.617 124.081 136.488 123.791 136.268 123.578C136.047 123.365 135.752 123.246 135.446 123.246C135.139 123.246 134.844 123.365 134.624 123.578C134.403 123.791 134.274 124.081 134.263 124.388V124.388Z" fill="#F2F2F2"/>
<path d="M126.018 133.877L143.221 133.919C143.527 133.908 143.818 133.779 144.031 133.559C144.244 133.338 144.363 133.044 144.363 132.737C144.363 132.431 144.244 132.136 144.031 131.916C143.818 131.696 143.527 131.566 143.221 131.556L126.018 131.514C125.711 131.524 125.421 131.654 125.208 131.874C124.995 132.094 124.875 132.389 124.875 132.695C124.875 133.002 124.995 133.296 125.208 133.517C125.421 133.737 125.711 133.866 126.018 133.877V133.877Z" fill="#F2F2F2"/>
<path d="M68.5125 142.482C68.5341 142.749 68.4493 143.014 68.2766 143.219C68.104 143.424 67.8574 143.552 67.5903 143.577V141.261C67.862 141.326 68.1026 141.483 68.2709 141.706C68.4391 141.928 68.5246 142.203 68.5125 142.482V142.482Z" fill="#F2F2F2"/>
<path d="M72.7404 144.035C73.611 144.035 74.3168 143.329 74.3168 142.459C74.3168 141.589 73.611 140.884 72.7404 140.884C71.8698 140.884 71.1641 141.589 71.1641 142.459C71.1641 143.329 71.8698 144.035 72.7404 144.035Z" fill="#F2F2F2"/>
<path d="M125.434 285.83C122.565 285.83 120.224 287.776 120.224 290.163C120.224 292.55 122.565 294.495 125.434 294.495H412.41V285.83H125.434Z" fill="white"/>
<path d="M343.728 285.83V294.495H125.434C122.565 294.495 120.224 292.55 120.224 290.163C120.224 287.776 122.565 285.83 125.434 285.83H343.728Z" fill="#007AFF"/>
<path d="M335.846 298.56C340.635 298.56 344.516 294.681 344.516 289.895C344.516 285.109 340.635 281.23 335.846 281.23C331.058 281.23 327.176 285.109 327.176 289.895C327.176 294.681 331.058 298.56 335.846 298.56Z" fill="#007AFF"/>
<path d="M115.512 162.034H67.5903V165.642H115.512C115.99 165.642 116.449 165.452 116.788 165.113C117.126 164.775 117.316 164.316 117.316 163.838C117.316 163.359 117.126 162.901 116.788 162.562C116.449 162.224 115.99 162.034 115.512 162.034V162.034Z" fill="white"/>
<path d="M235.602 133.344C237.165 129.328 242.953 128.006 246.155 130.795C248.066 132.46 249.491 134.746 252.018 135.563C254.745 136.445 257.332 134.989 259.662 133.728C260.861 132.991 262.185 132.479 263.568 132.216C264.82 132.078 266.087 132.186 267.297 132.535C269.987 133.243 272.456 134.593 275.012 135.656C277.76 136.824 280.724 137.399 283.709 137.342C287.261 137.288 290.813 137.148 294.364 137.048C298.341 136.936 302.317 136.824 306.294 136.713C310.214 136.692 314.127 136.357 317.994 135.711C319.487 135.427 318.854 133.149 317.365 133.432C313.83 134.019 310.253 134.322 306.669 134.339C303.024 134.443 299.379 134.546 295.734 134.646C292.026 134.75 288.319 134.862 284.61 134.958C282.959 135.063 281.302 134.976 279.671 134.699C278.288 134.388 276.939 133.945 275.641 133.377C273.001 132.27 270.444 130.865 267.646 130.185C264.98 129.503 262.157 129.809 259.699 131.046C257.444 132.145 254.669 134.421 252.071 133.035C249.814 131.83 248.575 129.313 246.342 128.03C241.668 125.344 235.245 127.776 233.322 132.715C232.77 134.134 235.055 134.748 235.602 133.344V133.344Z" fill="#F2F2F2"/>
<path d="M241.663 152.238C243.34 149.756 245.229 146.903 248.289 146.058C248.952 145.846 249.652 145.782 250.342 145.871C251.032 145.96 251.694 146.199 252.28 146.572C253.366 147.302 254.194 148.367 255.233 149.161C257.424 150.837 259.846 150.577 262.203 149.418C264.195 148.438 266.44 146.503 268.802 147.278C270.452 147.82 271.738 149.144 273.335 149.818C274.073 150.186 274.889 150.371 275.713 150.36C276.538 150.349 277.348 150.142 278.076 149.755C278.336 149.591 278.521 149.333 278.594 149.035C278.667 148.737 278.621 148.423 278.466 148.158C278.311 147.893 278.059 147.699 277.764 147.616C277.469 147.533 277.153 147.569 276.883 147.714C275.519 148.511 273.928 147.57 272.762 146.816C271.549 145.878 270.156 145.199 268.67 144.82C266.031 144.375 263.788 145.903 261.573 147.086C260.602 147.732 259.454 148.064 258.288 148.036C256.999 147.863 256.062 146.786 255.173 145.941C254.226 144.94 253.051 144.182 251.748 143.734C250.253 143.335 248.673 143.399 247.216 143.919C243.745 145.107 241.589 148.132 239.621 151.045C238.768 152.309 240.815 153.493 241.663 152.238V152.238Z" fill="#F2F2F2"/>
<path d="M212.273 125.838C211.891 126.039 211.458 126.12 211.03 126.071C210.602 126.022 210.199 125.845 209.873 125.563C209.547 125.281 209.314 124.907 209.204 124.49C209.095 124.074 209.113 123.634 209.258 123.228C209.946 121.487 212.448 121.89 213.396 123.114C214.749 124.861 214.124 127.283 212.885 128.889C211.35 130.88 208.987 132.01 206.791 133.104C206.595 133.225 206.438 133.4 206.339 133.608C206.24 133.815 206.203 134.047 206.233 134.276C206.263 134.504 206.358 134.719 206.507 134.894C206.656 135.069 206.853 135.198 207.074 135.264L215.757 137.148C217.24 137.47 217.874 135.192 216.385 134.869L207.702 132.985L207.985 135.145C210.454 133.914 212.968 132.598 214.698 130.38C215.521 129.418 216.085 128.262 216.336 127.021C216.587 125.78 216.517 124.495 216.133 123.289C215.757 122.15 215 121.175 213.988 120.53C212.976 119.886 211.773 119.61 210.581 119.75C209.985 119.818 209.411 120.01 208.894 120.314C208.376 120.617 207.928 121.024 207.578 121.51C207.227 121.996 206.982 122.55 206.857 123.136C206.733 123.722 206.732 124.328 206.855 124.915C207.435 127.935 210.862 129.181 213.466 127.879C214.827 127.198 213.631 125.159 212.273 125.838V125.838Z" fill="#F2F2F2"/>
<path d="M220.524 138.127C221.394 138.127 222.1 137.421 222.1 136.551C222.1 135.681 221.394 134.976 220.524 134.976C219.653 134.976 218.947 135.681 218.947 136.551C218.947 137.421 219.653 138.127 220.524 138.127Z" fill="#F2F2F2"/>
<path d="M258.96 162.168H206.822C206.344 162.168 205.886 162.357 205.548 162.695C205.21 163.033 205.021 163.49 205.021 163.968C205.021 164.445 205.21 164.903 205.548 165.241C205.886 165.578 206.344 165.768 206.822 165.768H258.96C259.437 165.768 259.895 165.578 260.233 165.241C260.571 164.903 260.761 164.445 260.761 163.968C260.761 163.49 260.571 163.033 260.233 162.695C259.895 162.357 259.437 162.168 258.96 162.168V162.168Z" fill="#F2F2F2"/>
<path d="M220.971 199.385H156.787C156.578 199.385 156.378 199.302 156.23 199.154C156.082 199.006 155.999 198.806 155.999 198.597C155.999 198.388 156.082 198.188 156.23 198.04C156.378 197.892 156.578 197.809 156.787 197.809H220.971C221.18 197.809 221.381 197.892 221.528 198.04C221.676 198.188 221.759 198.388 221.759 198.597C221.759 198.806 221.676 199.006 221.528 199.154C221.381 199.302 221.18 199.385 220.971 199.385Z" fill="#374151"/>
<path d="M152.333 209.625C156.686 209.625 160.215 206.099 160.215 201.748C160.215 197.397 156.686 193.87 152.333 193.87C147.98 193.87 144.451 197.397 144.451 201.748C144.451 206.099 147.98 209.625 152.333 209.625Z" fill="#007AFF"/>
<path d="M101.994 87.1733C100.576 89.1978 98.2662 90.3716 96.0435 91.4744C88.745 95.0981 81.4439 98.7192 74.1401 102.338L74.5342 102.81L74.81 103.149L75.1962 103.606C73.1864 106.3 71.1765 108.992 69.1667 111.68C68.6386 112.382 68.1184 113.091 67.5903 113.792V69.882C68.1184 69.6693 68.6386 69.4566 69.1667 69.2518C74.1874 67.2351 79.2054 65.2237 84.2209 63.2175C86.8297 62.1777 89.6041 61.1142 92.3627 61.5948C97.9194 62.5558 100.505 68.8815 102.112 74.2856C103.381 78.5552 104.548 83.5181 101.994 87.1733Z" fill="white"/>
<path d="M75.677 103.96C73.5096 106.867 71.3394 109.777 69.1667 112.689C68.6386 113.39 68.1184 114.099 67.5903 114.8V112.791C68.1184 112.09 68.6465 111.381 69.1667 110.68C71.0189 108.206 72.8659 105.733 74.7076 103.259C74.7375 103.219 74.7719 103.182 74.81 103.149C75.2987 102.739 76.1105 103.377 75.677 103.96Z" fill="#CCCCCC"/>
<path d="M102.948 86.7636C101.734 88.9693 99.5746 90.3322 97.3992 91.4586C94.9164 92.7427 92.3864 93.9558 89.88 95.2005C84.7568 97.7371 79.6416 100.274 74.5342 102.81C74.4869 102.834 74.4317 102.858 74.3844 102.881C73.6908 103.228 72.9815 100.991 73.746 99.9113C76.7805 95.6259 87.0819 95.2556 91.8898 92.8688C93.1036 92.2622 94.3174 91.6635 95.5391 91.057C96.6576 90.5355 97.7445 89.9489 98.7943 89.3002C100.692 88.1909 102.076 86.3799 102.648 84.2586C103.042 82.2692 102.996 80.218 102.514 78.248C102.073 76.1132 101.48 74.0125 100.741 71.9617C99.3539 68.0387 97.1076 63.257 92.6307 62.2486C90.5184 61.776 88.3588 62.3195 86.3726 63.0285C84.0553 63.8635 81.7775 64.8404 79.4918 65.7542C76.0475 67.1327 72.6058 68.5113 69.1667 69.8899C68.6386 70.1026 68.1184 70.3074 67.5903 70.5201V69.2361C68.1184 69.0234 68.6386 68.8107 69.1667 68.5979C73.549 66.8491 77.9338 65.095 82.3214 63.3357C84.4805 62.3451 86.7361 61.5795 89.0524 61.0512C91.2632 60.6194 93.5557 61.0088 95.4997 62.1462C97.4416 63.4406 99.0054 65.2265 100.032 67.3218C101.156 69.511 102.051 71.8103 102.704 74.1831C103.886 78.1692 105.084 82.88 102.948 86.7636Z" fill="#CCCCCC"/>
<path d="M74.3626 76.9022C74.3562 76.917 74.3507 76.932 74.3444 76.9468C73.2278 76.4822 71.9734 76.4742 70.851 76.9244C69.7285 77.3746 68.8277 78.2471 68.3422 79.3543V79.3543C67.8552 80.4654 67.8257 81.7235 68.2599 82.8562C68.6941 83.989 69.5572 84.9052 70.6623 85.4067L70.6617 85.4082L70.7185 85.4331L79.1199 89.1119L82.8256 80.6581L82.8014 80.6475C82.8077 80.6335 82.8147 80.6201 82.8209 80.6059C83.3123 79.4849 83.338 78.2147 82.8923 77.0747C82.4467 75.9347 81.5662 75.0184 80.4446 74.5272V74.5272C79.8892 74.284 79.2913 74.1525 78.6851 74.1403C78.0789 74.128 77.4762 74.2352 76.9115 74.4558C76.3467 74.6763 75.8309 75.0059 75.3936 75.4256C74.9563 75.8454 74.606 76.3472 74.3626 76.9022Z" fill="#007AFF"/>
<path d="M412.41 237.753C411.905 236.682 411.385 235.595 410.833 234.5C408.855 230.506 406.609 226.331 404.221 222.14C397.655 210.56 390.033 198.822 384.035 190.377V190.37C381.616 186.959 379.456 184.099 377.738 181.988C376.672 180.676 375.357 179.588 373.868 178.787C372.379 177.986 370.746 177.487 369.064 177.32C367.381 177.153 365.682 177.321 364.065 177.814C362.447 178.307 360.944 179.115 359.64 180.191C358.337 181.268 357.26 182.592 356.472 184.087C355.683 185.582 355.199 187.219 355.047 188.902C354.894 190.585 355.077 192.281 355.584 193.893C356.092 195.506 356.913 197.001 358.002 198.294L377.446 227.812L386.597 241.708L394.053 253.036L368.469 264.828L364.284 266.758L351.949 272.446L351.878 272.478C351.854 272.462 351.823 272.446 351.799 272.43C351.191 272.06 350.553 271.741 349.892 271.477C348.261 270.834 346.512 270.541 344.761 270.618C343.465 270.672 342.185 270.93 340.969 271.383C338.932 272.134 337.126 273.404 335.729 275.065C334.331 276.727 333.391 278.724 333.001 280.859C332.946 281.111 332.914 281.371 332.883 281.639C332.876 281.678 332.874 281.718 332.875 281.757H332.867C332.599 284.287 333.107 286.838 334.323 289.072C335.54 291.306 337.407 293.118 339.677 294.267C339.834 294.346 339.992 294.424 340.158 294.495C340.945 294.855 341.77 295.127 342.617 295.307C343.675 295.539 344.758 295.631 345.84 295.582C346.847 295.538 347.844 295.374 348.812 295.094H348.82C349.374 294.931 349.916 294.731 350.443 294.495C352.172 293.71 353.701 292.542 354.913 291.081C356.125 289.619 356.99 287.902 357.442 286.059C357.947 285.995 358.514 285.917 359.137 285.83C360.414 285.649 361.927 285.42 363.637 285.145C364.315 285.034 365.025 284.916 365.758 284.79C378.573 282.584 399.515 277.889 410.833 269.586C411.385 269.177 411.913 268.767 412.41 268.35V237.753Z" fill="#EFB4BD"/>
<path d="M96.2405 301.711C103.205 301.711 108.851 296.068 108.851 289.107C108.851 282.146 103.205 276.503 96.2405 276.503C89.2757 276.503 83.6296 282.146 83.6296 289.107C83.6296 296.068 89.2757 301.711 96.2405 301.711Z" fill="#007AFF"/>
<path d="M94.3269 295.899C94.2169 295.898 94.1081 295.876 94.0067 295.834C93.8554 295.773 93.726 295.668 93.6355 295.533C93.5449 295.397 93.4974 295.237 93.4991 295.074V283.472C93.4991 283.31 93.5473 283.151 93.6377 283.015C93.728 282.88 93.8565 282.775 94.0068 282.713C94.157 282.65 94.3224 282.634 94.4819 282.666C94.6415 282.698 94.788 282.776 94.903 282.891L100.707 288.692C100.861 288.846 100.948 289.055 100.948 289.273C100.948 289.491 100.861 289.7 100.707 289.854L94.903 295.656C94.8279 295.732 94.7382 295.793 94.6393 295.835C94.5404 295.877 94.4342 295.898 94.3269 295.899V295.899Z" fill="white"/>
<path d="M353.264 101.658C361.099 101.658 367.451 95.3093 367.451 87.4781C367.451 79.6469 361.099 73.2985 353.264 73.2985C345.428 73.2985 339.077 79.6469 339.077 87.4781C339.077 95.3093 345.428 101.658 353.264 101.658Z" fill="#111827"/>
<path d="M353.379 108.02C346.605 104.084 344.747 95.0995 348.917 88.4691C349.908 86.8926 351.201 85.5266 352.72 84.4493C354.24 83.3719 355.957 82.6043 357.773 82.1902C359.59 81.7761 361.47 81.7236 363.307 82.0357C365.143 82.3479 366.901 83.0185 368.478 84.0094C375.112 88.1768 370.131 96.2497 372.94 103.56C376.914 113.902 362.514 113.327 353.379 108.02Z" fill="#111827"/>
<path d="M320.438 103.631C319.945 104.78 304.742 104.657 304.046 105.679C298.678 113.574 318.03 147.163 312.661 155.068L311.913 155.959C313.665 155.152 315.347 154.204 316.944 153.123C317.087 149.887 317.231 146.641 317.384 143.406C318.992 145.462 320.29 147.742 321.236 150.174C322.486 149.293 323.511 147.661 328.869 144.45C331.038 142.069 333.538 140.012 336.293 138.342L320.438 103.631Z" fill="#111827"/>
<path d="M327.974 140.882C341.87 140.882 353.136 129.622 353.136 115.733C353.136 101.843 341.87 90.5835 327.974 90.5835C314.077 90.5835 302.811 101.843 302.811 115.733C302.811 129.622 314.077 140.882 327.974 140.882Z" fill="#EFB4BD"/>
<path d="M347.085 151.961C345.036 150.25 343.61 147.911 343.028 145.306C342.563 148.468 342.684 151.69 343.387 154.808C342.024 155.832 340.702 156.805 339.453 157.685C338.506 155.253 337.208 152.973 335.6 150.917C335.447 154.153 335.303 157.399 335.16 160.634C333.563 161.715 331.881 162.664 330.13 163.471L330.878 162.58C336.246 154.675 322.354 140.125 327.722 132.23C329.228 130.018 322.426 112.54 317.242 111.751C312.631 111.055 312.826 112.386 308.359 113.359C307.895 111.425 307.175 109.562 306.218 107.819C306.473 109.761 306.414 111.732 306.044 113.656C304.456 113.717 303.207 112.706 301.516 112.447C290.728 110.799 291.824 99.1363 294.826 95.4398C297.838 91.7536 307.837 90.6477 312.447 89.4497C312.867 89.0401 313.82 89.2961 314.24 88.907C323.075 80.8255 334.892 79.4872 345.525 83.0691C356.865 86.8889 363.936 94.2819 367.564 105.679L368.605 114.8C369.539 117.733 368.364 131.378 367.564 134.35C364.455 145.902 357.833 140.135 347.085 151.961Z" fill="#111827"/>
<rect x="69.4211" y="2" width="341.157" height="357.258" rx="30" stroke="#90BCFF" stroke-width="4"/>
</svg>
